<mxfile host="app.diagrams.net" modified="2023-05-17T13:04:16.961Z" agent="Mozilla/5.0 (Windows NT 10.0; Win64; x64) AppleWebKit/537.36 (KHTML, like Gecko) Chrome/113.0.0.0 Safari/537.36" etag="oecUpVr0DVMxH0UZGpwx" version="21.3.2" type="github">
  <diagram name="Page-1" id="PMTQ6iTP8vey_3XFuXgW">
    <mxGraphModel dx="2206" dy="1175" grid="1" gridSize="10" guides="1" tooltips="1" connect="1" arrows="1" fold="1" page="1" pageScale="1" pageWidth="2336" pageHeight="1654" background="#FFFFFF" math="0" shadow="1">
      <root>
        <mxCell id="0" />
        <mxCell id="1" parent="0" />
        <mxCell id="W_HL1xRibeNmsB4Oc6Xz-17" style="edgeStyle=orthogonalEdgeStyle;rounded=0;orthogonalLoop=1;jettySize=auto;html=1;entryX=0.5;entryY=0;entryDx=0;entryDy=0;entryPerimeter=0;endArrow=none;endFill=0;" parent="1" source="W_HL1xRibeNmsB4Oc6Xz-1" target="W_HL1xRibeNmsB4Oc6Xz-8" edge="1">
          <mxGeometry relative="1" as="geometry" />
        </mxCell>
        <mxCell id="W_HL1xRibeNmsB4Oc6Xz-19" style="edgeStyle=orthogonalEdgeStyle;rounded=0;orthogonalLoop=1;jettySize=auto;html=1;endArrow=none;endFill=0;shape=link;" parent="1" source="W_HL1xRibeNmsB4Oc6Xz-1" target="W_HL1xRibeNmsB4Oc6Xz-2" edge="1">
          <mxGeometry relative="1" as="geometry" />
        </mxCell>
        <mxCell id="W_HL1xRibeNmsB4Oc6Xz-22" style="rounded=0;orthogonalLoop=1;jettySize=auto;html=1;entryX=0.05;entryY=0.05;entryDx=0;entryDy=0;entryPerimeter=0;endArrow=none;endFill=0;" parent="1" source="W_HL1xRibeNmsB4Oc6Xz-1" target="W_HL1xRibeNmsB4Oc6Xz-9" edge="1">
          <mxGeometry relative="1" as="geometry" />
        </mxCell>
        <mxCell id="W_HL1xRibeNmsB4Oc6Xz-1" value="" style="fontColor=#0066CC;verticalAlign=top;verticalLabelPosition=bottom;labelPosition=center;align=center;html=1;outlineConnect=0;fillColor=#CCCCCC;strokeColor=#6881B3;gradientColor=none;gradientDirection=north;strokeWidth=2;shape=mxgraph.networks.router;" parent="1" vertex="1">
          <mxGeometry x="835" y="480" width="70" height="20" as="geometry" />
        </mxCell>
        <mxCell id="W_HL1xRibeNmsB4Oc6Xz-18" style="edgeStyle=orthogonalEdgeStyle;rounded=0;orthogonalLoop=1;jettySize=auto;html=1;entryX=0.5;entryY=0;entryDx=0;entryDy=0;entryPerimeter=0;endArrow=none;endFill=0;" parent="1" source="W_HL1xRibeNmsB4Oc6Xz-2" target="W_HL1xRibeNmsB4Oc6Xz-9" edge="1">
          <mxGeometry relative="1" as="geometry" />
        </mxCell>
        <mxCell id="W_HL1xRibeNmsB4Oc6Xz-23" style="rounded=0;orthogonalLoop=1;jettySize=auto;html=1;entryX=0.95;entryY=0.05;entryDx=0;entryDy=0;entryPerimeter=0;endArrow=none;endFill=0;" parent="1" source="W_HL1xRibeNmsB4Oc6Xz-2" target="W_HL1xRibeNmsB4Oc6Xz-8" edge="1">
          <mxGeometry relative="1" as="geometry" />
        </mxCell>
        <mxCell id="W_HL1xRibeNmsB4Oc6Xz-2" value="" style="fontColor=#0066CC;verticalAlign=top;verticalLabelPosition=bottom;labelPosition=center;align=center;html=1;outlineConnect=0;fillColor=#CCCCCC;strokeColor=#6881B3;gradientColor=none;gradientDirection=north;strokeWidth=2;shape=mxgraph.networks.router;" parent="1" vertex="1">
          <mxGeometry x="1133" y="480" width="70" height="20" as="geometry" />
        </mxCell>
        <mxCell id="W_HL1xRibeNmsB4Oc6Xz-7" style="rounded=0;orthogonalLoop=1;jettySize=auto;html=1;endArrow=none;endFill=0;" parent="1" source="W_HL1xRibeNmsB4Oc6Xz-4" target="W_HL1xRibeNmsB4Oc6Xz-6" edge="1">
          <mxGeometry relative="1" as="geometry" />
        </mxCell>
        <mxCell id="W_HL1xRibeNmsB4Oc6Xz-15" style="edgeStyle=orthogonalEdgeStyle;rounded=0;orthogonalLoop=1;jettySize=auto;html=1;entryX=0.5;entryY=0;entryDx=0;entryDy=0;entryPerimeter=0;endArrow=none;endFill=0;" parent="1" source="W_HL1xRibeNmsB4Oc6Xz-4" target="W_HL1xRibeNmsB4Oc6Xz-1" edge="1">
          <mxGeometry relative="1" as="geometry" />
        </mxCell>
        <mxCell id="W_HL1xRibeNmsB4Oc6Xz-21" style="rounded=0;orthogonalLoop=1;jettySize=auto;html=1;entryX=0.05;entryY=0.05;entryDx=0;entryDy=0;entryPerimeter=0;exitX=1;exitY=1;exitDx=0;exitDy=0;exitPerimeter=0;endArrow=none;endFill=0;" parent="1" source="W_HL1xRibeNmsB4Oc6Xz-4" target="W_HL1xRibeNmsB4Oc6Xz-2" edge="1">
          <mxGeometry relative="1" as="geometry" />
        </mxCell>
        <mxCell id="W_HL1xRibeNmsB4Oc6Xz-4" value="" style="fontColor=#0066CC;verticalAlign=top;verticalLabelPosition=bottom;labelPosition=center;align=center;html=1;outlineConnect=0;fillColor=#CCCCCC;strokeColor=#6881B3;gradientColor=none;gradientDirection=north;strokeWidth=2;shape=mxgraph.networks.firewall;" parent="1" vertex="1">
          <mxGeometry x="840" y="240" width="60" height="60" as="geometry" />
        </mxCell>
        <mxCell id="W_HL1xRibeNmsB4Oc6Xz-16" style="edgeStyle=orthogonalEdgeStyle;rounded=0;orthogonalLoop=1;jettySize=auto;html=1;endArrow=none;endFill=0;" parent="1" source="W_HL1xRibeNmsB4Oc6Xz-5" target="W_HL1xRibeNmsB4Oc6Xz-2" edge="1">
          <mxGeometry relative="1" as="geometry" />
        </mxCell>
        <mxCell id="W_HL1xRibeNmsB4Oc6Xz-20" style="rounded=0;orthogonalLoop=1;jettySize=auto;html=1;entryX=0.95;entryY=0.05;entryDx=0;entryDy=0;entryPerimeter=0;exitX=0;exitY=1;exitDx=0;exitDy=0;exitPerimeter=0;endArrow=none;endFill=0;" parent="1" source="W_HL1xRibeNmsB4Oc6Xz-5" target="W_HL1xRibeNmsB4Oc6Xz-1" edge="1">
          <mxGeometry relative="1" as="geometry" />
        </mxCell>
        <mxCell id="W_HL1xRibeNmsB4Oc6Xz-5" value="" style="fontColor=#0066CC;verticalAlign=top;verticalLabelPosition=bottom;labelPosition=center;align=center;html=1;outlineConnect=0;fillColor=#CCCCCC;strokeColor=#6881B3;gradientColor=none;gradientDirection=north;strokeWidth=2;shape=mxgraph.networks.firewall;" parent="1" vertex="1">
          <mxGeometry x="1138" y="240" width="60" height="60" as="geometry" />
        </mxCell>
        <mxCell id="W_HL1xRibeNmsB4Oc6Xz-6" value="" style="fontColor=#0066CC;verticalAlign=top;verticalLabelPosition=bottom;labelPosition=center;align=center;html=1;outlineConnect=0;fillColor=#CCCCCC;strokeColor=#6881B3;gradientColor=none;gradientDirection=north;strokeWidth=2;shape=mxgraph.networks.router;" parent="1" vertex="1">
          <mxGeometry x="540" y="480" width="70" height="20" as="geometry" />
        </mxCell>
        <mxCell id="W_HL1xRibeNmsB4Oc6Xz-24" style="rounded=0;orthogonalLoop=1;jettySize=auto;html=1;entryX=0.5;entryY=0;entryDx=0;entryDy=0;entryPerimeter=0;endArrow=none;endFill=0;" parent="1" source="W_HL1xRibeNmsB4Oc6Xz-8" target="W_HL1xRibeNmsB4Oc6Xz-13" edge="1">
          <mxGeometry relative="1" as="geometry" />
        </mxCell>
        <mxCell id="W_HL1xRibeNmsB4Oc6Xz-25" style="rounded=0;orthogonalLoop=1;jettySize=auto;html=1;endArrow=none;endFill=0;entryX=0.5;entryY=0;entryDx=0;entryDy=0;entryPerimeter=0;" parent="1" source="W_HL1xRibeNmsB4Oc6Xz-8" target="W_HL1xRibeNmsB4Oc6Xz-12" edge="1">
          <mxGeometry relative="1" as="geometry" />
        </mxCell>
        <mxCell id="W_HL1xRibeNmsB4Oc6Xz-28" style="rounded=0;orthogonalLoop=1;jettySize=auto;html=1;endArrow=none;endFill=0;" parent="1" source="W_HL1xRibeNmsB4Oc6Xz-8" target="W_HL1xRibeNmsB4Oc6Xz-14" edge="1">
          <mxGeometry relative="1" as="geometry" />
        </mxCell>
        <mxCell id="W_HL1xRibeNmsB4Oc6Xz-8" value="" style="fontColor=#0066CC;verticalAlign=top;verticalLabelPosition=bottom;labelPosition=center;align=center;html=1;outlineConnect=0;fillColor=#CCCCCC;strokeColor=#6881B3;gradientColor=none;gradientDirection=north;strokeWidth=2;shape=mxgraph.networks.router;" parent="1" vertex="1">
          <mxGeometry x="835" y="680" width="70" height="20" as="geometry" />
        </mxCell>
        <mxCell id="W_HL1xRibeNmsB4Oc6Xz-26" style="rounded=0;orthogonalLoop=1;jettySize=auto;html=1;endArrow=none;endFill=0;" parent="1" source="W_HL1xRibeNmsB4Oc6Xz-9" edge="1">
          <mxGeometry relative="1" as="geometry">
            <mxPoint x="1020" y="889.9999999999998" as="targetPoint" />
          </mxGeometry>
        </mxCell>
        <mxCell id="W_HL1xRibeNmsB4Oc6Xz-27" style="rounded=0;orthogonalLoop=1;jettySize=auto;html=1;endArrow=none;endFill=0;" parent="1" source="W_HL1xRibeNmsB4Oc6Xz-9" target="W_HL1xRibeNmsB4Oc6Xz-14" edge="1">
          <mxGeometry relative="1" as="geometry" />
        </mxCell>
        <mxCell id="W_HL1xRibeNmsB4Oc6Xz-29" style="rounded=0;orthogonalLoop=1;jettySize=auto;html=1;endArrow=none;endFill=0;" parent="1" source="W_HL1xRibeNmsB4Oc6Xz-9" edge="1">
          <mxGeometry relative="1" as="geometry">
            <mxPoint x="670" y="889.9999999999998" as="targetPoint" />
          </mxGeometry>
        </mxCell>
        <mxCell id="W_HL1xRibeNmsB4Oc6Xz-9" value="" style="fontColor=#0066CC;verticalAlign=top;verticalLabelPosition=bottom;labelPosition=center;align=center;html=1;outlineConnect=0;fillColor=#CCCCCC;strokeColor=#6881B3;gradientColor=none;gradientDirection=north;strokeWidth=2;shape=mxgraph.networks.router;" parent="1" vertex="1">
          <mxGeometry x="1133" y="680" width="70" height="20" as="geometry" />
        </mxCell>
        <mxCell id="5ECcNkWA5p3nbGUgpKdq-6" style="rounded=0;orthogonalLoop=1;jettySize=auto;html=1;entryX=0.5;entryY=0;entryDx=0;entryDy=0;entryPerimeter=0;endArrow=none;endFill=0;" edge="1" parent="1" source="W_HL1xRibeNmsB4Oc6Xz-12" target="5ECcNkWA5p3nbGUgpKdq-1">
          <mxGeometry relative="1" as="geometry" />
        </mxCell>
        <mxCell id="5ECcNkWA5p3nbGUgpKdq-9" style="rounded=0;orthogonalLoop=1;jettySize=auto;html=1;entryX=0.5;entryY=0;entryDx=0;entryDy=0;entryPerimeter=0;endArrow=none;endFill=0;" edge="1" parent="1" source="W_HL1xRibeNmsB4Oc6Xz-12" target="5ECcNkWA5p3nbGUgpKdq-2">
          <mxGeometry relative="1" as="geometry" />
        </mxCell>
        <mxCell id="5ECcNkWA5p3nbGUgpKdq-13" style="rounded=0;orthogonalLoop=1;jettySize=auto;html=1;entryX=0.5;entryY=0;entryDx=0;entryDy=0;entryPerimeter=0;endArrow=none;endFill=0;" edge="1" parent="1" source="W_HL1xRibeNmsB4Oc6Xz-12" target="5ECcNkWA5p3nbGUgpKdq-3">
          <mxGeometry relative="1" as="geometry" />
        </mxCell>
        <mxCell id="5ECcNkWA5p3nbGUgpKdq-14" style="rounded=0;orthogonalLoop=1;jettySize=auto;html=1;endArrow=none;endFill=0;" edge="1" parent="1" source="W_HL1xRibeNmsB4Oc6Xz-12" target="5ECcNkWA5p3nbGUgpKdq-4">
          <mxGeometry relative="1" as="geometry" />
        </mxCell>
        <mxCell id="W_HL1xRibeNmsB4Oc6Xz-12" value="" style="fontColor=#0066CC;verticalAlign=top;verticalLabelPosition=bottom;labelPosition=center;align=center;html=1;outlineConnect=0;fillColor=#CCCCCC;strokeColor=#6881B3;gradientColor=none;gradientDirection=north;strokeWidth=2;shape=mxgraph.networks.router;" parent="1" vertex="1">
          <mxGeometry x="980" y="890" width="70" height="20" as="geometry" />
        </mxCell>
        <mxCell id="5ECcNkWA5p3nbGUgpKdq-5" style="rounded=0;orthogonalLoop=1;jettySize=auto;html=1;endArrow=none;endFill=0;entryX=0.5;entryY=0;entryDx=0;entryDy=0;entryPerimeter=0;" edge="1" parent="1" source="W_HL1xRibeNmsB4Oc6Xz-13" target="5ECcNkWA5p3nbGUgpKdq-1">
          <mxGeometry relative="1" as="geometry" />
        </mxCell>
        <mxCell id="5ECcNkWA5p3nbGUgpKdq-8" style="rounded=0;orthogonalLoop=1;jettySize=auto;html=1;entryX=0.5;entryY=0;entryDx=0;entryDy=0;entryPerimeter=0;endArrow=none;endFill=0;" edge="1" parent="1" source="W_HL1xRibeNmsB4Oc6Xz-13" target="5ECcNkWA5p3nbGUgpKdq-2">
          <mxGeometry relative="1" as="geometry" />
        </mxCell>
        <mxCell id="5ECcNkWA5p3nbGUgpKdq-11" style="rounded=0;orthogonalLoop=1;jettySize=auto;html=1;entryX=0.5;entryY=0;entryDx=0;entryDy=0;entryPerimeter=0;endArrow=none;endFill=0;" edge="1" parent="1" source="W_HL1xRibeNmsB4Oc6Xz-13" target="5ECcNkWA5p3nbGUgpKdq-3">
          <mxGeometry relative="1" as="geometry" />
        </mxCell>
        <mxCell id="5ECcNkWA5p3nbGUgpKdq-12" style="rounded=0;orthogonalLoop=1;jettySize=auto;html=1;endArrow=none;endFill=0;" edge="1" parent="1" source="W_HL1xRibeNmsB4Oc6Xz-13" target="5ECcNkWA5p3nbGUgpKdq-4">
          <mxGeometry relative="1" as="geometry" />
        </mxCell>
        <mxCell id="W_HL1xRibeNmsB4Oc6Xz-13" value="" style="fontColor=#0066CC;verticalAlign=top;verticalLabelPosition=bottom;labelPosition=center;align=center;html=1;outlineConnect=0;fillColor=#CCCCCC;strokeColor=#6881B3;gradientColor=none;gradientDirection=north;strokeWidth=2;shape=mxgraph.networks.router;" parent="1" vertex="1">
          <mxGeometry x="630" y="890" width="70" height="20" as="geometry" />
        </mxCell>
        <mxCell id="5ECcNkWA5p3nbGUgpKdq-7" style="rounded=0;orthogonalLoop=1;jettySize=auto;html=1;entryX=0.5;entryY=0;entryDx=0;entryDy=0;entryPerimeter=0;endArrow=none;endFill=0;" edge="1" parent="1" source="W_HL1xRibeNmsB4Oc6Xz-14" target="5ECcNkWA5p3nbGUgpKdq-1">
          <mxGeometry relative="1" as="geometry" />
        </mxCell>
        <mxCell id="5ECcNkWA5p3nbGUgpKdq-10" style="rounded=0;orthogonalLoop=1;jettySize=auto;html=1;entryX=0.5;entryY=0;entryDx=0;entryDy=0;entryPerimeter=0;endArrow=none;endFill=0;" edge="1" parent="1" source="W_HL1xRibeNmsB4Oc6Xz-14" target="5ECcNkWA5p3nbGUgpKdq-2">
          <mxGeometry relative="1" as="geometry" />
        </mxCell>
        <mxCell id="5ECcNkWA5p3nbGUgpKdq-16" style="rounded=0;orthogonalLoop=1;jettySize=auto;html=1;endArrow=none;endFill=0;" edge="1" parent="1" source="W_HL1xRibeNmsB4Oc6Xz-14" target="5ECcNkWA5p3nbGUgpKdq-3">
          <mxGeometry relative="1" as="geometry" />
        </mxCell>
        <mxCell id="5ECcNkWA5p3nbGUgpKdq-17" style="rounded=0;orthogonalLoop=1;jettySize=auto;html=1;entryX=0.5;entryY=0;entryDx=0;entryDy=0;entryPerimeter=0;endArrow=none;endFill=0;" edge="1" parent="1" source="W_HL1xRibeNmsB4Oc6Xz-14" target="5ECcNkWA5p3nbGUgpKdq-4">
          <mxGeometry relative="1" as="geometry" />
        </mxCell>
        <mxCell id="W_HL1xRibeNmsB4Oc6Xz-14" value="" style="fontColor=#0066CC;verticalAlign=top;verticalLabelPosition=bottom;labelPosition=center;align=center;html=1;outlineConnect=0;fillColor=#CCCCCC;strokeColor=#6881B3;gradientColor=none;gradientDirection=north;strokeWidth=2;shape=mxgraph.networks.router;" parent="1" vertex="1">
          <mxGeometry x="1330" y="890" width="70" height="20" as="geometry" />
        </mxCell>
        <mxCell id="5ECcNkWA5p3nbGUgpKdq-1" value="" style="fontColor=#0066CC;verticalAlign=top;verticalLabelPosition=bottom;labelPosition=center;align=center;html=1;outlineConnect=0;fillColor=#CCCCCC;strokeColor=#6881B3;gradientColor=none;gradientDirection=north;strokeWidth=2;shape=mxgraph.networks.router;" vertex="1" parent="1">
          <mxGeometry x="500" y="1130" width="70" height="20" as="geometry" />
        </mxCell>
        <mxCell id="5ECcNkWA5p3nbGUgpKdq-2" value="" style="fontColor=#0066CC;verticalAlign=top;verticalLabelPosition=bottom;labelPosition=center;align=center;html=1;outlineConnect=0;fillColor=#CCCCCC;strokeColor=#6881B3;gradientColor=none;gradientDirection=north;strokeWidth=2;shape=mxgraph.networks.router;" vertex="1" parent="1">
          <mxGeometry x="770" y="1130" width="70" height="20" as="geometry" />
        </mxCell>
        <mxCell id="5ECcNkWA5p3nbGUgpKdq-3" value="" style="fontColor=#0066CC;verticalAlign=top;verticalLabelPosition=bottom;labelPosition=center;align=center;html=1;outlineConnect=0;fillColor=#CCCCCC;strokeColor=#6881B3;gradientColor=none;gradientDirection=north;strokeWidth=2;shape=mxgraph.networks.router;" vertex="1" parent="1">
          <mxGeometry x="1203" y="1130" width="70" height="20" as="geometry" />
        </mxCell>
        <mxCell id="5ECcNkWA5p3nbGUgpKdq-4" value="" style="fontColor=#0066CC;verticalAlign=top;verticalLabelPosition=bottom;labelPosition=center;align=center;html=1;outlineConnect=0;fillColor=#CCCCCC;strokeColor=#6881B3;gradientColor=none;gradientDirection=north;strokeWidth=2;shape=mxgraph.networks.router;" vertex="1" parent="1">
          <mxGeometry x="1473" y="1130" width="70" height="20" as="geometry" />
        </mxCell>
      </root>
    </mxGraphModel>
  </diagram>
</mxfile>
